{"title":"Merlin (2008) S03EP04 XVID (ENG+NL SUBS) RHoek 2Lions-Team","uid":5887093,"size":367498456,"categoryP":"video","categoryS":"tv_shows","magnet":"?xt=urn:btih:decf2c752608d6280b05cb40b07ee57d19aa2659&amp;dn=Merlin+%282008%29+S03EP04+XVID+%28ENG%2BNL+SUBS%29+RHoek+2Lions-Team&amp;tr=udp%3A%2F%2Ftracker.openbittorrent.com%3A80&amp;tr=udp%3A%2F%2Fopen.demonii.com%3A1337&amp;tr=udp%3A%2F%2Ftracker.coppersurfer.tk%3A6969&amp;tr=udp%3A%2F%2Fexodus.desync.com%3A6969","seeders":0,"leechers":1,"uploader":"RHoek-2lions","files":-1,"time":1287096741,"description":"FOR ENGLISH, PLEASE SCROLL DOWN!\n\n~~~~~~~~~~~~~~~~~~~~~~~~~~~~~~~~~~~~~~~~~~~~~~~~~~~~~~~~~\nVERHAALLIJN:\nÃ‚Â¯Ã‚Â¯Ã‚Â¯Ã‚Â¯Ã‚Â¯Ã‚Â¯Ã‚Â¯Ã‚Â¯Ã‚Â¯Ã‚Â¯Ã‚Â¯Ã‚Â¯\nEen jaar na haar vlucht uit Camelot, word Morgana gevonden, gehavend en beurs in het woud, ontvoering claimend door bandieten. Oppervlakkig berouwvol en charmant, werkt ze nog steeds voor Morgheuse, voor wie ze tranen verzameld van Pendragon. Deze worden gebruikt om hem te vervloeken en de pop van Mandrake te maken. Deze maakt hem langzaam gek, en als hij begint te hallicuneren, spoken ziend, benadert Morgheuse rivaal Koning Cenred om het gehavende koninkrijk binnen te vallen en als eerste Merlin gevangen te nemen. Deze roept echter de Grote Draak op om hem te bevrijden.\n\n~~~~~~~~~~~~~~~~~~~~~~~~~~~~~~~~~~~~~~~~~~~~~~~~~~~~~~~~~\n- Titel: Merlin (2008) S03EP03 XVID (ENG+NL SUBS) RHoek 2Lions-Team\n- Bron: .avi\n- Genre : Fantasy\n- Ondertitelingen: Engels door Red Bee Media Ltd &amp; Nederlands door Regeer van Bierdopje.com. Superwerk weer Regeer!\n\nIMDb: http://www.imdb.com/title/tt1199099/\nOfficiÃƒÂ«le website: http://www.bbc.co.uk/merlin/\n\n~~~~~~~~~~~~~~~~~~~~~~~~~~~~~~~~~~~~~~~~~~~~~~~~~~~~~~~~~\nSTORY LINE:\nÃ‚Â¯Ã‚Â¯Ã‚Â¯Ã‚Â¯Ã‚Â¯Ã‚Â¯Ã‚Â¯Ã‚Â¯Ã‚Â¯Ã‚Â¯Ã‚Â¯\nA year after her flight from Camelot, Morgana is found,dishevelled and bruised in the forest,claiming abduction by bandits. Superficially contrite and charming,she is still in league with Morghause,for whom she collects tears shed by Pendragon. These are used to curse him and fashion a doll from mandrake,which Morgana places under his bed.It slowly starts to drive him mad and, as he begins to hallucinate,seeing ghosts,Morghause approaches rival king Cenred to invade the weakened kingdom,having first taken Merlin prisoner. However Merlin summons the Great Dragon to come and free him.\n\n~~~~~~~~~~~~~~~~~~~~~~~~~~~~~~~~~~~~~~~~~~~~~~~~~~~~~~~~~\n- Title: Merlin (2008) S03EP03 XVID (ENG+NL SUBS) RHoek 2Lions-Team\n- Source: .avi\n- Genre : Fantasy\n- Subtitles: English by Red Bee Media Ltd &amp; Dutch by Regeer from Bierdopje.com.\n\nIMDb: http://www.imdb.com/title/tt1199099/\nOfficial website: http://www.bbc.co.uk/merlin/\n\n~~~~~~~~~~~~~~~~~~~~~~~~~~~~~~~~~~~~~~~~~~~~~~~~~~~~~~~~~\nVIDEO AND AUDIO INFORMATION\nÃ‚Â¯Ã‚Â¯Ã‚Â¯Ã‚Â¯Ã‚Â¯Ã‚Â¯Ã‚Â¯Ã‚Â¯Ã‚Â¯Ã‚Â¯Ã‚Â¯Ã‚Â¯Ã‚Â¯Ã‚Â¯Ã‚Â¯Ã‚Â¯Ã‚Â¯Ã‚Â¯Ã‚Â¯Ã‚Â¯Ã‚Â¯Ã‚Â¯Ã‚Â¯Ã‚Â¯Ã‚Â¯Ã‚Â¯Ã‚Â¯Ã‚Â¯Ã‚Â¯Ã‚Â¯\nFormat                           : AVI\nFormat/Info                      : Audio Video Interleave\nFile size                        : 350 MiB\nDuration                         : 42mn 24s\nOverall bit rate                 : 1 155 Kbps\nWriting application              : transcode-1.0.7\n\nVideo\nID                               : 0\nFormat                           : MPEG-4 Visual\nFormat profile                   : Advanced Simple@L5\nFormat settings, BVOP            : Yes\nFormat settings, QPel            : No\nFormat settings, GMC             : No warppoints\nFormat settings, Matrix          : Default (H.263)\nMuxing mode                      : Packed bitstream\nCodec ID                         : XVID\nCodec ID/Hint                    : XviD\nDuration                         : 42mn 24s\nBit rate                         : 1 013 Kbps\nWidth                            : 624 pixels\nHeight                           : 352 pixels\nDisplay aspect ratio             : 16:9\nFrame rate                       : 25.000 fps\nColor space                      : YUV\nChroma subsampling               : 4:2:0\nBit depth                        : 8 bits\nScan type                        : Progressive\nBits/(Pixel*Frame)               : 0.184\nStream size                      : 307 MiB (88%)\nWriting library                  : XviD 1.2.1 (UTC 2008-12-04)\n\nAudio\nID                               : 1\nFormat                           : MPEG Audio\nFormat version                   : Version 1\nFormat profile                   : Layer 3\nMode                             : Joint stereo\nMode extension                   : MS Stereo\nCodec ID                         : 55\nCodec ID/Hint                    : MP3\nDuration                         : 42mn 24s\nBit rate mode                    : Variable\nBit rate                         : 224 Kbps\nChannel(s)                       : 2 channels\nSampling rate                    : 48.0 KHz\nBit depth                        : 16 bits\nStream size                      : 39.3 MiB (11%)\nAlignment                        : Aligned on interleaves\nInterleave, duration             : 24 ms (0.60 video frame)\n\n\n*****************************************\n\nBrought to you by\n2Lions Team\n\nMeer zien??\nKom dan eens kijken op ons forum\n &lt;a href=&quot;\nhttp://www.2lions-site.nl&quot; rel=&quot;nofollow&quot; target=&quot;_NEW&quot;&gt;\nhttp://www.2lions-site.nl&lt;/a&gt;\n\n2Lions the site to be for all your Dutch MOVIES and more\n\n******************************************","torrent":{"xt":"urn:btih:decf2c752608d6280b05cb40b07ee57d19aa2659","amp;dn":"Merlin+%282008%29+S03EP04+XVID+%28ENG%2BNL+SUBS%29+RHoek+2Lions-Team","amp;tr":["udp%3A%2F%2Ftracker.openbittorrent.com%3A80","udp%3A%2F%2Fopen.demonii.com%3A1337","udp%3A%2F%2Ftracker.coppersurfer.tk%3A6969","udp%3A%2F%2Fexodus.desync.com%3A6969"],"infoHash":"decf2c752608d6280b05cb40b07ee57d19aa2659","infoHashBuffer":{"type":"Buffer","data":[222,207,44,117,38,8,214,40,11,5,203,64,176,126,229,125,25,170,38,89]},"announce":[],"urlList":[]}}